<svg width="600" height="1386" viewBox="0 0 600 1386" fill="none" xmlns="http://www.w3.org/2000/svg">
<path d="M818.516 1143.39C746.278 1145.29 669.553 1089.41 577.858 1063.41C486.568 1037.89 378.946 1042.57 312.486 996.906C245.142 951.163 218.003 855.872 225.91 767.106C233.743 679.223 276.622 597.865 298.855 502.747C321.089 407.629 346.361 348.127 400.851 298.009C455.342 247.89 538.976 208.038 628.284 225.383C717.187 242.249 788.964 267.01 864.094 288.939C940.107 310.944 1019.47 330.118 1071.42 379.008C1123.85 427.494 1148.47 505.218 1182.05 592.601C1215.24 679.504 1257.47 775.182 1233.56 847.911C1208.77 920.565 1117.83 970.269 1038.41 1025.84C959.059 1080.53 891.233 1141.09 818.516 1143.39Z" fill="url(#paint0_linear)" fill-opacity="0.8"/>
<defs>
<linearGradient id="paint0_linear" x1="1069.79" y1="374.756" x2="316.462" y2="1010.91" gradientUnits="userSpaceOnUse">
<stop stop-color="#4776E6"/>
<stop offset="1" stop-color="#8E54E9"/>
</linearGradient>
</defs>
</svg>
