<svg width="886" height="881" viewBox="0 0 886 881" fill="none" xmlns="http://www.w3.org/2000/svg">
<path d="M617.813 59.5625C668.438 100.063 688.688 182.75 736.5 253.625C784.313 323.938 860.813 383 879.938 452.75C899.625 523.063 863.063 604.063 806.25 660.313C750 716 673.5 746.938 603.188 799.25C532.875 851.563 481.1 877.712 414.725 880.525C348.35 883.337 267.938 862.25 216.75 798.688C165.562 735.688 130.687 677.188 91.875 618.688C52.5 559.625 9.18747 500.563 1.87497 437C-6.00003 373.438 22.125 305.938 49.6875 226.625C77.25 147.875 103.687 57.8751 162.188 21.875C221.25 -13.5625 312.375 5.00004 399 12.875C485.063 21.3125 566.625 19.0625 617.813 59.5625Z" fill="url(#paint0_linear)" fill-opacity="0.8"/>
<defs>
<linearGradient id="paint0_linear" x1="0.53064" y1="440.857" x2="885.317" y2="440.857" gradientUnits="userSpaceOnUse">
<stop stop-color="#4776E6"/>
<stop offset="1" stop-color="#8E54E9"/>
</linearGradient>
</defs>
</svg>
