<svg width="397" height="981" viewBox="0 0 397 981" fill="none" xmlns="http://www.w3.org/2000/svg">
<path d="M687.895 65.3587C744.311 110.516 766.877 202.712 820.159 281.737C873.441 360.136 958.693 425.99 980.005 503.761C1001.94 582.159 961.2 672.474 897.888 735.192C835.204 797.283 749.953 831.779 671.597 890.107C593.241 948.435 535.543 977.591 461.575 980.727C387.607 983.863 297.996 960.352 240.953 889.48C183.91 819.235 145.046 754.008 101.793 688.78C57.914 622.926 9.64687 557.072 1.49787 486.2C-7.27798 415.328 24.0643 340.066 54.7798 251.633C85.4953 163.827 114.957 63.4771 180.149 23.3373C245.968 -16.1754 347.517 4.52175 444.052 13.3023C539.959 22.7101 630.852 20.2013 687.895 65.3587Z" fill="url(#paint0_linear)" fill-opacity="0.8"/>
<defs>
<linearGradient id="paint0_linear" x1="-0.000244141" y1="490.5" x2="986" y2="490.5" gradientUnits="userSpaceOnUse">
<stop stop-color="#4776E6"/>
<stop offset="1" stop-color="#8E54E9"/>
</linearGradient>
</defs>
</svg>
