<svg width="293" height="294" viewBox="0 0 293 294" fill="none" xmlns="http://www.w3.org/2000/svg">
<path d="M205.06 230.506C190.395 236.208 170.56 230.399 149.855 231.815C129.269 233.299 107.557 242.176 90.5773 237.705C73.411 233.283 60.84 215.75 55.9314 196.976C51.0725 178.389 53.876 158.562 51.4363 137.432C48.9967 116.303 49.7993 102.25 57.2804 87.9701C64.7614 73.6906 78.9706 59.3715 98.5495 56.3573C118.01 53.2747 134.542 53.0698 151.552 52.0381C168.749 50.9567 186.425 49.0485 200.668 55.2471C214.98 61.3276 225.741 75.4464 239.052 90.8843C252.244 106.254 267.938 122.756 268.387 139.42C268.649 156.134 253.667 173.01 241.478 190.241C229.24 207.285 219.794 224.685 205.06 230.506Z" fill="#7F4AF1"/>
</svg>
