<svg width="303" height="303" viewBox="0 0 303 303" fill="none" xmlns="http://www.w3.org/2000/svg">
<path d="M247.705 118.377C249.04 134.055 237.874 151.447 233.393 171.71C229.012 191.88 231.406 215.214 222.328 230.244C213.245 245.466 192.878 252.583 173.482 251.998C154.279 251.418 136.047 243.137 115.087 239.519C94.1274 235.901 80.8707 231.168 69.2804 219.964C57.6901 208.759 47.9592 191.089 50.5886 171.455C53.119 151.914 57.5843 135.996 61.3915 119.385C65.2035 102.581 68.3574 85.0846 78.3211 73.1675C88.1907 61.1514 104.771 54.8088 123.336 46.3916C141.802 38.0685 162.06 27.6659 178.175 31.9343C194.284 36.3958 206.25 55.5284 219.344 72.0819C232.246 88.6305 246.276 102.6 247.705 118.377Z" fill="#7F4AF1"/>
</svg>
