<svg width="501" height="1190" viewBox="0 0 501 1190" fill="none" xmlns="http://www.w3.org/2000/svg">
<path d="M1006.41 556.145C996.763 619.366 936.087 677.459 899.097 753.264C862.587 828.793 849.838 923.272 799.663 974.021C749.284 1025.53 662.035 1034.26 585.95 1013.49C510.623 992.924 446.462 942.849 367.085 908.604C287.708 874.36 239.83 843.041 204.696 787.737C169.562 732.433 147.929 653.349 177.006 578.268C205.602 503.465 238.397 444.816 269.25 382.803C300.306 320.032 329.421 253.898 380.133 216.291C430.569 178.204 502.121 168.923 583.49 153.332C664.379 138.02 754.327 116.195 813.939 148.399C873.347 181.36 902.42 268.349 938.406 346.221C973.635 423.891 1015.78 492.444 1006.41 556.145Z" fill="url(#paint0_linear)" fill-opacity="0.8"/>
<defs>
<linearGradient id="paint0_linear" x1="376.175" y1="217.046" x2="812.479" y2="972.747" gradientUnits="userSpaceOnUse">
<stop stop-color="#4776E6"/>
<stop offset="1" stop-color="#8E54E9"/>
</linearGradient>
</defs>
</svg>
