<svg width="31" height="40" viewBox="0 0 31 40" fill="none" xmlns="http://www.w3.org/2000/svg">
<path d="M24.128 12.3372C17.1633 8.04496 20.4293 1.98675 20.5695 1.73493C20.7728 1.37658 20.7722 0.935708 20.5678 0.577976C20.3635 0.220244 19.9864 0 19.5784 0C15.9933 0 13.1859 1.03182 11.2343 3.06689C7.89948 6.54424 8.05419 11.9563 8.12018 14.2674C8.1275 14.5234 8.13382 14.7447 8.13382 14.909C8.13382 16.6249 8.40558 18.2091 8.64541 19.6067C8.79996 20.5074 8.93341 21.2852 8.95711 21.8968C8.98248 22.5514 8.86451 22.7015 8.85948 22.7075C8.84264 22.7277 8.70242 22.8033 8.32328 22.8033C7.89087 22.8033 7.57209 22.6602 7.28966 22.3394C6.18647 21.0864 6.11018 17.6648 6.32113 15.8034C6.35885 15.4751 6.25635 15.1463 6.03938 14.8995C5.82249 14.6528 5.51187 14.5117 5.18569 14.5117C2.21775 14.5117 0 19.4282 0 23.8242C0 25.8907 0.410307 27.915 1.21957 29.8409C2.00192 31.7028 3.11754 33.3832 4.53556 34.8353C7.48879 37.8595 11.3825 39.525 15.4996 39.525C19.6333 39.525 23.526 37.883 26.4608 34.9017C29.388 31.928 31 27.9938 31 23.824C30.9999 18.5034 26.8903 14.0395 24.128 12.3372ZM15.4996 37.2091C8.3373 37.2091 2.28634 31.0795 2.28634 23.824C2.28634 22.0595 2.70198 20.2073 3.42665 18.7425C3.5959 18.4003 3.76958 18.1067 3.94098 17.8594C3.96011 19.7698 4.25884 22.374 5.58144 23.8786C6.29491 24.6902 7.24302 25.1191 8.32336 25.1191C9.33259 25.1191 10.1017 24.8093 10.6091 24.1982C11.5577 23.0558 11.2665 21.3587 10.898 19.2101C10.674 17.9047 10.4202 16.425 10.4202 14.9089C10.4202 14.711 10.4134 14.4744 10.4056 14.2003C10.343 12.0111 10.2128 7.45579 12.8742 4.68062C14.069 3.43474 15.737 2.67651 17.8472 2.41705C17.609 3.21835 17.4036 4.23558 17.3957 5.37455C17.3782 7.88408 18.3257 11.4723 22.9397 14.3158C25.1721 15.6915 28.7137 19.4894 28.7137 23.8241C28.7137 31.2046 22.7859 37.2091 15.4996 37.2091Z" fill="#5F2CCE"/>
</svg>
