<svg width="41" height="38" viewBox="0 0 41 38" fill="none" xmlns="http://www.w3.org/2000/svg">
<path fill-rule="evenodd" clip-rule="evenodd" d="M20.5 4.22222C19.8039 3.39643 18.9923 2.67538 18.097 2.07396C16.1185 0.744879 13.7307 0 11.275 0C4.961 0 0 5.01145 0 11.3896C0 13.6559 0.524272 15.808 1.42235 17.8554C4.20783 24.2115 10.5898 29.5752 16.0833 34.1922C17.6648 35.5214 19.1728 36.7887 20.5 38C21.8272 36.7887 23.3352 35.5214 24.9167 34.1922C30.4101 29.5753 36.7919 24.2117 39.5775 17.8558C40.4757 15.8083 41 13.6561 41 11.3896C41 5.01145 36.039 0 29.725 0C27.2693 0 24.8815 0.744879 22.903 2.07396C22.0077 2.67538 21.1961 3.39643 20.5 4.22222ZM20.5 32.4476C21.1617 31.8829 21.8381 31.3134 22.5135 30.7447C23.0855 30.2631 23.6568 29.782 24.2178 29.3051C26.4636 27.3957 28.6618 25.4558 30.6084 23.4228C33.0173 20.907 34.8076 18.4856 35.8501 16.0955C36.5377 14.5175 36.9 12.9545 36.9 11.3896C36.9 7.4196 33.8494 4.22222 29.725 4.22222C27.2887 4.22222 25.0152 5.30676 23.5961 6.99013L20.5 10.6629L17.4039 6.99013C15.9848 5.30676 13.7113 4.22222 11.275 4.22222C7.15057 4.22222 4.1 7.4196 4.1 11.3896C4.1 12.9545 4.46232 14.5175 5.14988 16.0955C6.19242 18.4856 7.98275 20.907 10.3916 23.4228C12.3382 25.4558 14.5364 27.3957 16.7822 29.3051C17.3432 29.782 17.9145 30.2631 18.4865 30.7447C19.1619 31.3134 19.8383 31.8829 20.5 32.4476Z" fill="#4F6FC9"/>
</svg>
