<svg width="587" height="1391" viewBox="0 0 587 1391" fill="none" xmlns="http://www.w3.org/2000/svg">
<path d="M333.6 543.654C339.732 615.657 288.449 695.528 267.872 788.59C247.75 881.22 258.743 988.382 217.052 1057.41C175.339 1127.32 81.8041 1160 -7.27314 1157.31C-95.4638 1154.65 -179.197 1116.62 -275.456 1100C-371.715 1083.39 -432.597 1061.65 -485.826 1010.2C-539.055 958.74 -583.745 877.587 -571.669 787.415C-560.048 697.676 -539.541 624.57 -522.056 548.283C-504.549 471.11 -490.065 390.756 -444.306 336.026C-398.979 280.841 -322.833 251.713 -237.572 213.056C-152.765 174.832 -59.729 127.057 14.2772 146.66C88.2607 167.15 143.215 255.017 203.352 331.04C262.603 407.041 327.037 471.197 333.6 543.654Z" fill="url(#paint0_linear)" fill-opacity="0.8"/>
<defs>
<linearGradient id="paint0_linear" x1="-448.455" y1="337.902" x2="230.794" y2="1052.62" gradientUnits="userSpaceOnUse">
<stop stop-color="#4776E6"/>
<stop offset="1" stop-color="#8E54E9"/>
</linearGradient>
</defs>
</svg>
