<svg width="400" height="335" viewBox="0 0 400 335" fill="none" xmlns="http://www.w3.org/2000/svg">
<path d="M253.322 197.219C212.431 198.293 169.001 166.662 117.097 151.944C65.4225 137.497 4.50266 140.151 -33.1171 114.3C-71.237 88.4068 -86.599 34.4672 -82.1233 -15.7789C-77.6896 -65.5249 -53.4181 -111.578 -40.8326 -165.419C-28.2472 -219.261 -13.9421 -252.942 16.9022 -281.312C47.7465 -309.682 95.088 -332.24 145.641 -322.422C195.965 -312.875 236.594 -298.859 279.121 -286.445C322.148 -273.99 367.073 -263.137 396.48 -235.462C426.159 -208.016 440.09 -164.021 459.102 -114.558C477.886 -65.366 501.793 -11.2072 488.258 29.9609C474.223 71.0868 422.746 99.222 377.79 130.68C332.876 161.637 294.483 195.916 253.322 197.219Z" fill="#BFA1FE" fill-opacity="0.2"/>
</svg>
