<svg width="400" height="424" viewBox="0 0 400 424" fill="none" xmlns="http://www.w3.org/2000/svg">
<path d="M196.516 181.394C124.278 183.291 47.5532 127.41 -44.1414 101.409C-135.431 75.8871 -243.054 80.5749 -309.514 34.9063C-376.858 -10.837 -403.996 -106.128 -396.089 -194.894C-388.257 -282.777 -345.378 -364.135 -323.144 -459.253C-300.911 -554.371 -275.639 -613.873 -221.149 -663.991C-166.658 -714.11 -83.0234 -753.962 6.28442 -736.617C95.1876 -719.751 166.965 -694.99 242.094 -673.061C318.107 -651.056 397.473 -631.882 449.424 -582.992C501.854 -534.506 526.466 -456.782 560.054 -369.399C593.237 -282.496 635.471 -186.818 611.56 -114.089C586.765 -41.435 495.825 8.26945 416.405 63.8431C337.059 118.533 269.233 179.092 196.516 181.394Z" fill="#5E30C0"/>
</svg>
